<mxfile host="Electron" modified="2024-02-08T15:58:12.954Z" agent="Mozilla/5.0 (Windows NT 10.0; Win64; x64) AppleWebKit/537.36 (KHTML, like Gecko) draw.io/22.1.16 Chrome/120.0.6099.109 Electron/28.1.0 Safari/537.36" etag="B0OF66_NGe0weyd2XFDl" version="22.1.16" type="device">
  <diagram name="Page-1" id="fSUP33grTio8ZMcoGlGr">
    <mxGraphModel dx="2840" dy="1416" grid="1" gridSize="10" guides="1" tooltips="1" connect="1" arrows="1" fold="1" page="0" pageScale="1" pageWidth="827" pageHeight="1169" math="0" shadow="0">
      <root>
        <mxCell id="0" />
        <mxCell id="1" parent="0" />
        <mxCell id="qWnRwTWnmsdSx8VxVSO9-44" style="edgeStyle=orthogonalEdgeStyle;rounded=0;orthogonalLoop=1;jettySize=auto;html=1;exitX=0;exitY=0.3333333333333333;exitDx=0;exitDy=0;exitPerimeter=0;entryX=1;entryY=0.5;entryDx=0;entryDy=0;" edge="1" parent="1" source="qWnRwTWnmsdSx8VxVSO9-1" target="qWnRwTWnmsdSx8VxVSO9-8">
          <mxGeometry relative="1" as="geometry" />
        </mxCell>
        <mxCell id="qWnRwTWnmsdSx8VxVSO9-45" style="edgeStyle=orthogonalEdgeStyle;rounded=0;orthogonalLoop=1;jettySize=auto;html=1;exitX=0;exitY=0.3333333333333333;exitDx=0;exitDy=0;exitPerimeter=0;entryX=1;entryY=0.5;entryDx=0;entryDy=0;" edge="1" parent="1" source="qWnRwTWnmsdSx8VxVSO9-1" target="qWnRwTWnmsdSx8VxVSO9-29">
          <mxGeometry relative="1" as="geometry" />
        </mxCell>
        <mxCell id="qWnRwTWnmsdSx8VxVSO9-54" style="edgeStyle=orthogonalEdgeStyle;rounded=0;orthogonalLoop=1;jettySize=auto;html=1;exitX=1;exitY=1;exitDx=0;exitDy=0;exitPerimeter=0;entryX=0;entryY=0.5;entryDx=0;entryDy=0;" edge="1" parent="1" source="qWnRwTWnmsdSx8VxVSO9-1" target="qWnRwTWnmsdSx8VxVSO9-49">
          <mxGeometry relative="1" as="geometry" />
        </mxCell>
        <mxCell id="qWnRwTWnmsdSx8VxVSO9-55" style="edgeStyle=orthogonalEdgeStyle;rounded=0;orthogonalLoop=1;jettySize=auto;html=1;exitX=1;exitY=1;exitDx=0;exitDy=0;exitPerimeter=0;entryX=0;entryY=0.5;entryDx=0;entryDy=0;" edge="1" parent="1" source="qWnRwTWnmsdSx8VxVSO9-1" target="qWnRwTWnmsdSx8VxVSO9-48">
          <mxGeometry relative="1" as="geometry" />
        </mxCell>
        <mxCell id="qWnRwTWnmsdSx8VxVSO9-1" value="User" style="shape=umlActor;verticalLabelPosition=bottom;verticalAlign=top;html=1;outlineConnect=0;" vertex="1" parent="1">
          <mxGeometry x="320" y="500" width="30" height="60" as="geometry" />
        </mxCell>
        <mxCell id="qWnRwTWnmsdSx8VxVSO9-18" style="edgeStyle=orthogonalEdgeStyle;rounded=0;orthogonalLoop=1;jettySize=auto;html=1;exitX=0.5;exitY=0;exitDx=0;exitDy=0;entryX=1;entryY=0.5;entryDx=0;entryDy=0;" edge="1" parent="1" source="qWnRwTWnmsdSx8VxVSO9-8" target="qWnRwTWnmsdSx8VxVSO9-10">
          <mxGeometry relative="1" as="geometry" />
        </mxCell>
        <mxCell id="qWnRwTWnmsdSx8VxVSO9-20" style="edgeStyle=orthogonalEdgeStyle;rounded=0;orthogonalLoop=1;jettySize=auto;html=1;exitX=0.5;exitY=0;exitDx=0;exitDy=0;entryX=1;entryY=0.5;entryDx=0;entryDy=0;" edge="1" parent="1" source="qWnRwTWnmsdSx8VxVSO9-8" target="qWnRwTWnmsdSx8VxVSO9-11">
          <mxGeometry relative="1" as="geometry" />
        </mxCell>
        <mxCell id="qWnRwTWnmsdSx8VxVSO9-21" value="Include" style="edgeLabel;html=1;align=center;verticalAlign=middle;resizable=0;points=[];" vertex="1" connectable="0" parent="qWnRwTWnmsdSx8VxVSO9-20">
          <mxGeometry x="-0.6333" y="-2" relative="1" as="geometry">
            <mxPoint as="offset" />
          </mxGeometry>
        </mxCell>
        <mxCell id="qWnRwTWnmsdSx8VxVSO9-8" value="Create task" style="ellipse;whiteSpace=wrap;html=1;" vertex="1" parent="1">
          <mxGeometry x="100" y="400" width="120" height="80" as="geometry" />
        </mxCell>
        <mxCell id="qWnRwTWnmsdSx8VxVSO9-10" value="Delete task" style="ellipse;whiteSpace=wrap;html=1;" vertex="1" parent="1">
          <mxGeometry x="10" y="220" width="120" height="80" as="geometry" />
        </mxCell>
        <mxCell id="qWnRwTWnmsdSx8VxVSO9-11" value="Edit task" style="ellipse;whiteSpace=wrap;html=1;" vertex="1" parent="1">
          <mxGeometry x="10" y="90" width="120" height="80" as="geometry" />
        </mxCell>
        <mxCell id="qWnRwTWnmsdSx8VxVSO9-34" style="edgeStyle=orthogonalEdgeStyle;rounded=0;orthogonalLoop=1;jettySize=auto;html=1;exitX=0.5;exitY=1;exitDx=0;exitDy=0;entryX=1;entryY=0.5;entryDx=0;entryDy=0;" edge="1" parent="1" source="qWnRwTWnmsdSx8VxVSO9-29" target="qWnRwTWnmsdSx8VxVSO9-30">
          <mxGeometry relative="1" as="geometry" />
        </mxCell>
        <mxCell id="qWnRwTWnmsdSx8VxVSO9-36" style="edgeStyle=orthogonalEdgeStyle;rounded=0;orthogonalLoop=1;jettySize=auto;html=1;exitX=0.5;exitY=1;exitDx=0;exitDy=0;entryX=1;entryY=0.5;entryDx=0;entryDy=0;" edge="1" parent="1" source="qWnRwTWnmsdSx8VxVSO9-29" target="qWnRwTWnmsdSx8VxVSO9-31">
          <mxGeometry relative="1" as="geometry" />
        </mxCell>
        <mxCell id="qWnRwTWnmsdSx8VxVSO9-37" value="Include" style="edgeLabel;html=1;align=center;verticalAlign=middle;resizable=0;points=[];" vertex="1" connectable="0" parent="qWnRwTWnmsdSx8VxVSO9-36">
          <mxGeometry x="-0.825" y="2" relative="1" as="geometry">
            <mxPoint as="offset" />
          </mxGeometry>
        </mxCell>
        <mxCell id="qWnRwTWnmsdSx8VxVSO9-41" style="edgeStyle=orthogonalEdgeStyle;rounded=0;orthogonalLoop=1;jettySize=auto;html=1;exitX=0.5;exitY=0;exitDx=0;exitDy=0;entryX=0.5;entryY=1;entryDx=0;entryDy=0;" edge="1" parent="1" source="qWnRwTWnmsdSx8VxVSO9-29" target="qWnRwTWnmsdSx8VxVSO9-8">
          <mxGeometry relative="1" as="geometry" />
        </mxCell>
        <mxCell id="qWnRwTWnmsdSx8VxVSO9-42" value="Include" style="edgeLabel;html=1;align=center;verticalAlign=middle;resizable=0;points=[];" vertex="1" connectable="0" parent="qWnRwTWnmsdSx8VxVSO9-41">
          <mxGeometry x="-0.2" y="-4" relative="1" as="geometry">
            <mxPoint x="6" as="offset" />
          </mxGeometry>
        </mxCell>
        <mxCell id="qWnRwTWnmsdSx8VxVSO9-29" value="Create Project" style="ellipse;whiteSpace=wrap;html=1;" vertex="1" parent="1">
          <mxGeometry x="100" y="580" width="120" height="80" as="geometry" />
        </mxCell>
        <mxCell id="qWnRwTWnmsdSx8VxVSO9-30" value="Delete project" style="ellipse;whiteSpace=wrap;html=1;" vertex="1" parent="1">
          <mxGeometry x="-10" y="680" width="120" height="80" as="geometry" />
        </mxCell>
        <mxCell id="qWnRwTWnmsdSx8VxVSO9-31" value="Edit project" style="ellipse;whiteSpace=wrap;html=1;" vertex="1" parent="1">
          <mxGeometry x="-10" y="810" width="120" height="80" as="geometry" />
        </mxCell>
        <mxCell id="qWnRwTWnmsdSx8VxVSO9-51" style="edgeStyle=orthogonalEdgeStyle;rounded=0;orthogonalLoop=1;jettySize=auto;html=1;exitX=0.5;exitY=0;exitDx=0;exitDy=0;entryX=0.5;entryY=1;entryDx=0;entryDy=0;" edge="1" parent="1" source="qWnRwTWnmsdSx8VxVSO9-48" target="qWnRwTWnmsdSx8VxVSO9-49">
          <mxGeometry relative="1" as="geometry" />
        </mxCell>
        <mxCell id="qWnRwTWnmsdSx8VxVSO9-52" value="Include" style="edgeLabel;html=1;align=center;verticalAlign=middle;resizable=0;points=[];" vertex="1" connectable="0" parent="qWnRwTWnmsdSx8VxVSO9-51">
          <mxGeometry x="-0.0571" y="-2" relative="1" as="geometry">
            <mxPoint as="offset" />
          </mxGeometry>
        </mxCell>
        <mxCell id="qWnRwTWnmsdSx8VxVSO9-48" value="Log in" style="ellipse;whiteSpace=wrap;html=1;" vertex="1" parent="1">
          <mxGeometry x="400" y="760" width="120" height="80" as="geometry" />
        </mxCell>
        <mxCell id="qWnRwTWnmsdSx8VxVSO9-49" value="Create account" style="ellipse;whiteSpace=wrap;html=1;" vertex="1" parent="1">
          <mxGeometry x="400" y="610" width="120" height="80" as="geometry" />
        </mxCell>
      </root>
    </mxGraphModel>
  </diagram>
</mxfile>
